<?xml version="1.0" encoding="UTF-8"?> <svg xmlns="http://www.w3.org/2000/svg" width="40" height="40" viewBox="0 0 40 40" fill="none"> <path fill-rule="evenodd" clip-rule="evenodd" d="M26.9772 0C27.1321 2.266 26.4925 4.5104 25.1941 6.25657C23.9345 8.01179 22.0259 9.0228 20.0157 8.99961C19.8878 6.79884 20.5461 4.6314 21.8455 2.97467C23.1614 1.29551 24.9936 0.233406 26.9772 0ZM34.0472 12.5551C31.5998 14.0071 30.0938 16.5677 30.0568 19.3398C30.0603 22.4762 32.0066 25.3066 35 26.5283C34.4243 28.333 33.5565 30.0386 32.4288 31.5817C30.9143 33.7679 29.3264 35.9038 26.8061 35.9432C25.6075 35.9699 24.7983 35.6373 23.9552 35.2907C23.0758 34.9292 22.1594 34.5525 20.7253 34.5525C19.2045 34.5525 18.247 34.9413 17.3236 35.3164C16.5256 35.6404 15.753 35.9542 14.6642 35.9978C12.264 36.0836 10.4297 33.6644 8.86011 31.4987C5.72302 27.0759 3.28024 19.0346 6.55514 13.5631C8.09299 10.8964 10.9684 9.20415 14.1293 9.1056C15.4906 9.07857 16.7968 9.58489 17.9421 10.0288C18.8179 10.3683 19.5996 10.6713 20.2397 10.6713C20.8023 10.6713 21.5622 10.3802 22.4477 10.0411C23.8427 9.50684 25.5495 8.85313 27.2888 9.0293C29.9916 9.11091 32.4962 10.4176 34.0472 12.5551Z" fill="white"></path> <path fill-rule="evenodd" clip-rule="evenodd" d="M26.9772 0C27.1321 2.266 26.4925 4.5104 25.1941 6.25657C23.9345 8.01179 22.0259 9.0228 20.0157 8.99961C19.8878 6.79884 20.5461 4.6314 21.8455 2.97467C23.1614 1.29551 24.9936 0.233406 26.9772 0ZM34.0472 12.5551C31.5998 14.0071 30.0938 16.5677 30.0568 19.3398C30.0603 22.4762 32.0066 25.3066 35 26.5283C34.4243 28.333 33.5565 30.0386 32.4288 31.5817C30.9143 33.7679 29.3264 35.9038 26.8061 35.9432C25.6075 35.9699 24.7983 35.6373 23.9552 35.2907C23.0758 34.9292 22.1594 34.5525 20.7253 34.5525C19.2045 34.5525 18.247 34.9413 17.3236 35.3164C16.5256 35.6404 15.753 35.9542 14.6642 35.9978C12.264 36.0836 10.4297 33.6644 8.86011 31.4987C5.72302 27.0759 3.28024 19.0346 6.55514 13.5631C8.09299 10.8964 10.9684 9.20415 14.1293 9.1056C15.4906 9.07857 16.7968 9.58489 17.9421 10.0288C18.8179 10.3683 19.5996 10.6713 20.2397 10.6713C20.8023 10.6713 21.5622 10.3802 22.4477 10.0411C23.8427 9.50684 25.5495 8.85313 27.2888 9.0293C29.9916 9.11091 32.4962 10.4176 34.0472 12.5551Z" fill="#0085FF" fill-opacity="0.5"></path> </svg> 