<?xml version="1.0" encoding="utf-8"?>
<!-- Generator: Adobe Illustrator 21.0.2, SVG Export Plug-In . SVG Version: 6.00 Build 0)  -->
<svg version="1.1" id="Layer_1" xmlns="http://www.w3.org/2000/svg" xmlns:xlink="http://www.w3.org/1999/xlink" x="0px" y="0px"
	 viewBox="0 0 1417.3 1417.3" style="enable-background:new 0 0 1417.3 1417.3;" xml:space="preserve">
<style type="text/css">
	.st0{fill:#E5E5E5;}
	.st1{fill:#FFFFFF;}
	.st2{fill:#009cea;}
</style>
<path class="st0" d="M708.8,0c391.3,0,708.5,317.2,708.5,708.5s-317.2,708.8-708.5,708.8S0,1100.1,0,708.8S317.2,0,708.8,0"/>
<path class="st1" d="M758.3,1062.9l111.9-373.4l-508-152.4v505.1c1,9.5,10,20.5,22.1,20.5h2.9h4.5h7.4h359.1V1062.9z M1050.5,87.9
	c22.6,12.4,44.3,26,65.3,40.7L966.2,604.9l450.1,134.6c-1.7,37.6-6.2,74.3-13.3,110l-469.4-141l-111.2,354.1h499.9
	c-22.4,38.8-48.6,75.3-77.6,109.1H788.3l-76.9,245.1c-1,0-1.9,0-2.9,0c-18.8,0-37.4-0.7-56-2.1l72.9-242.9H399.2H362
	c-62.9,0-109.1-60.3-109.1-109.1v-28.3H79.3c-9.5-18.1-18.1-36.9-26-56h199.6V504.4L51.2,443.9c13.8-34.1,30-66.7,48.6-97.9
	l153.1,45.7V166c33.8-28.3,70.3-53.8,109.1-75.5v333.9l539.4,161.2L1050.5,87.9z"/>
<path class="st2" d="M705.9,1127.7c-275.8-165-390.8-344.6-390.8-560.4s175-390.8,390.8-390.8s390.8,175,390.8,390.8
	S981.9,962.6,705.9,1127.7"/>
<path class="st1" d="M381.5,578.3c6.9-22.4,32.4-45,47.6-75.5c155,86.7,328.9,130.8,543.7,87.9c19.3,28.6,38.6,57.4,57.6,86
	c0.5,0.7,0.5,3.3,0,4.3c-60.7,170-189.8,234.4-338,230.8C539.7,907.9,373.2,762.1,381.5,578.3"/>
<path class="st2" d="M594.2,700.7h-47.2c-0.2,0,0-0.2,0-0.5c0.2-26,21.4-46.9,47.4-46.9c26.2,0,47.4,21.2,47.4,47.4H594.2z"/>
<path class="st2" d="M824.8,700.7h-47.2c-0.2,0,0-0.2,0-0.5c0.2-26,21.4-46.9,47.4-46.9c26.2,0,47.4,21.2,47.4,47.4H824.8z"/>
<path class="st2" d="M709.5,762.4h67.9c0.2,0,0,0.5,0,0.7c-0.2,37.2-30.5,67.2-67.9,67.2s-67.9-30.5-67.9-67.9H709.5z"/>
</svg>
