<svg width="123" height="20" viewBox="0 0 123 20" fill="none" xmlns="http://www.w3.org/2000/svg">
<path d="M36.3706 0.321974C35.7795 0.48296 35.2088 0.664071 35.1068 0.724441C35.0049 0.784811 34.9234 1.69036 34.9234 2.73678C34.9234 4.60825 34.9234 4.6485 34.475 4.50763C33.8635 4.32652 32.6813 4.34329 31.601 4.60825C30.6914 4.83132 29.6442 6.01688 29.2161 6.84194C28.2785 8.65305 28.2581 11.8124 29.1754 13.3418C30.3372 15.3139 33.3335 15.5755 34.8011 13.865C35.0865 13.543 35.3514 13.2814 35.4126 13.2814C35.4737 13.2814 35.6368 13.6436 35.7591 14.1065L36.0241 14.9315L37.0025 14.8108C37.5528 14.7303 38.2254 14.5894 38.4904 14.4888L39 14.2876V7.14379V-2.23517e-07L38.2458 0.0201231C37.8178 0.0201231 36.9821 0.160988 36.3706 0.321974ZM34.8215 9.5586V11.3697L34.0673 11.4301C33.1297 11.5106 32.6813 10.9471 32.6813 9.69946C32.6813 8.99514 32.7976 8.63416 33.2452 8.2C33.5782 7.87701 34.0673 7.64688 34.3527 7.68712C34.8011 7.74749 34.8215 7.82799 34.8215 9.5586Z" fill="#0085FF"/>
<path d="M108.871 0.321974C108.279 0.48296 107.709 0.664071 107.607 0.724441C107.505 0.784811 107.423 1.69036 107.423 2.73678C107.423 4.60825 107.423 4.6485 106.975 4.50763C106.363 4.32652 105.181 4.34329 104.101 4.60825C103.191 4.83132 102.144 6.01688 101.716 6.84194C100.779 8.65305 100.758 11.8124 101.675 13.3418C102.837 15.3139 105.834 15.5755 107.301 13.865C107.586 13.543 107.851 13.2814 107.913 13.2814C107.974 13.2814 108.137 13.6436 108.259 14.1065L108.524 14.9315L109.502 14.8108C110.053 14.7303 110.725 14.5894 110.99 14.4888L111.5 14.2876V7.14379V-2.23517e-07L110.746 0.0201231C110.318 0.0201231 109.482 0.160988 108.871 0.321974ZM107.321 9.5586V11.3697L106.567 11.4301C105.63 11.5106 105.181 10.9471 105.181 9.69946C105.181 8.99514 105.298 8.63416 105.745 8.2C106.078 7.87701 106.567 7.64688 106.853 7.68712C107.301 7.74749 107.321 7.82799 107.321 9.5586Z" fill="#0085FF"/>
<path d="M47.5831 1.02525C47.2078 1.08474 46.6943 1.16406 46.4573 1.20372L46.0031 1.30288V8.02542C46.0031 15.6403 45.8451 14.9859 47.7805 14.9859C49.716 14.9859 49.558 15.442 49.558 9.47304C49.558 6.57779 49.5975 4.25762 49.637 4.29728C49.6962 4.35677 49.8345 5.01118 49.953 5.76474C50.0715 6.53813 50.5849 8.8583 51.0787 10.9603C52.1056 15.2239 51.9279 14.9859 54.0016 14.9859C56.0752 14.9859 55.8777 15.2635 56.9244 10.762C57.4379 8.56084 57.9712 6.18118 58.1094 5.46728C58.3266 4.29728 58.3464 4.65423 58.4056 9.43338C58.4451 13.3202 58.5241 14.7083 58.7019 14.8273C58.9784 15.0058 61.2298 15.0454 61.684 14.8669C61.9605 14.7678 62 13.9746 62 8.04525C62 3.06779 61.9408 1.28305 61.763 1.18389C61.3878 0.945927 56.8059 1.00542 56.3715 1.24339C56.0752 1.42186 55.8382 2.17542 55.2458 4.91203C54.8508 6.79593 54.4558 8.99711 54.3768 9.7705C54.2978 10.5637 54.1793 11.2181 54.1201 11.2181C54.0411 11.2181 53.8831 10.4447 53.7646 9.47304C53.3893 6.61745 52.1056 1.32271 51.7501 1.22355C51.2564 1.06491 48.3335 0.945927 47.5831 1.02525Z" fill="#0085FF"/>
<path d="M81.9327 1.03084C81.6462 1.07063 81.2164 1.1502 80.9707 1.18998L80.5 1.28944V8.03283V14.7762L80.9707 14.8956C81.5643 15.0348 83.7338 15.0348 84.3478 14.8956C84.7776 14.7762 84.7981 14.6966 84.7981 12.2101C84.7981 9.80321 84.8186 9.64408 85.187 9.64408C85.4735 9.64408 85.9647 10.3005 87.0495 12.1505C88.1343 13.9606 88.6664 14.6966 89.0758 14.8359C89.6284 15.0547 93.2715 15.0149 93.4967 14.7762C93.5581 14.7165 92.7599 13.3241 91.6956 11.6731C90.6313 10.0419 89.6488 8.51023 89.526 8.27153C89.3009 7.89358 89.526 7.45596 91.2658 4.65119C92.5961 2.48296 93.1692 1.3889 93.0259 1.24965C92.7599 0.99106 89.4646 0.99106 88.9734 1.24965C88.7483 1.36901 87.9501 2.54264 87.1928 3.85551C86.0057 5.90438 85.7191 6.26244 85.2893 6.26244H84.7981V3.77594C84.7981 1.36901 84.7776 1.28944 84.3478 1.20987C83.4268 1.03084 82.4239 0.951275 81.9327 1.03084Z" fill="#0085FF"/>
<path d="M0.00467591 7.87149C0.00467591 15.7018 -0.186849 14.9827 1.88162 14.9827C4.14162 14.9827 4.02671 15.1025 4.02671 12.3659V9.98887H6.21009H8.37433L8.48924 9.10996C8.56585 8.65053 8.56585 7.93142 8.48924 7.51194L8.37433 6.79283H6.21009H4.02671V5.59431V4.39579H6.32501C8.39348 4.39579 8.62331 4.35584 8.81484 4.01626C9.02551 3.57681 9.06382 2.15856 8.89145 1.43946L8.77653 1H4.3906H0.00467591V7.87149Z" fill="#0085FF"/>
<path d="M19.3538 5.17511C18.9811 5.21416 18.2946 5.33132 17.8434 5.44849L17 5.68282V10.2132C17 14.1773 17.0392 14.7826 17.3138 14.8803C17.765 15.056 20.3934 15.017 20.668 14.8412C20.8445 14.7436 20.923 13.8258 20.9622 11.8926L21.021 9.0806L21.5702 8.67052C21.9822 8.35808 22.1979 8.31903 22.4529 8.47525C22.7471 8.67052 22.7864 9.11966 22.8452 11.7168C22.9041 15.2122 22.7471 14.9974 25.0617 14.9974C27.1016 14.9974 27.0624 15.0951 26.9643 10.8771C26.8662 6.83494 26.6897 6.0929 25.5913 5.42896C24.1986 4.58928 21.8449 5.03841 21.0014 6.28817C20.6091 6.91305 20.3345 6.77636 20.3345 5.91715C20.3345 5.15558 20.2757 5.11652 19.3538 5.17511Z" fill="#0085FF"/>
<path d="M115.802 4.2774C113.758 5.16002 113.134 8.39629 114.726 9.8463C115.027 10.1195 115.866 10.5398 116.619 10.813C117.415 11.0862 117.996 11.4224 118.039 11.6326C118.147 12.1159 116.189 12.0739 114.662 11.5695L113.5 11.1702L113.629 12.4101C113.78 14.1123 114.167 14.6377 115.436 14.8478C117.092 15.121 119.244 15.0159 120.319 14.6166C121.481 14.1753 122.062 13.4608 122.384 12.0949C122.836 10.0775 121.976 8.77455 119.609 7.93396C118.878 7.66077 118.233 7.34555 118.211 7.24048C118.168 6.86221 119.717 6.90424 120.857 7.32454C121.459 7.5557 121.997 7.63976 122.083 7.53468C122.255 7.26149 121.782 5.16002 121.459 4.78176C121.309 4.59262 120.879 4.34045 120.47 4.21436C119.48 3.89914 116.619 3.94117 115.802 4.2774Z" fill="#0085FF"/>
<path d="M12.1588 0.155133C11.4056 0.455583 11 1.07526 11 1.97661C11 3.02819 11.4442 3.64787 12.3905 3.89198C13.0085 4.06098 13.2789 4.04221 13.8583 3.76053C14.7467 3.34742 15.0943 2.70896 14.9784 1.75127C14.8239 0.436805 13.4141 -0.351877 12.1588 0.155133Z" fill="#0085FF"/>
<path d="M11.4628 5.18734C11.0036 5.36741 11.0036 5.38742 11.0036 10.0694C11.0036 15.4116 10.8239 14.9915 13 14.9915C15.1761 14.9915 14.9964 15.4317 14.9964 9.98936V5.22736L14.5572 5.10731C13.8784 4.92723 11.9619 4.98725 11.4628 5.18734Z" fill="#0085FF"/>
<path d="M96.1588 0.155133C95.4056 0.455583 95 1.07526 95 1.97661C95 3.02819 95.4442 3.64787 96.3905 3.89198C97.0085 4.06098 97.2789 4.04221 97.8583 3.76053C98.7467 3.34742 99.0943 2.70896 98.9784 1.75127C98.8239 0.436805 97.4141 -0.351877 96.1588 0.155133Z" fill="#0085FF"/>
<path d="M95.4628 5.18734C95.0036 5.36741 95.0036 5.38742 95.0036 10.0694C95.0036 15.4116 94.8239 14.9915 97 14.9915C99.1761 14.9915 98.9964 15.4317 98.9964 9.98936V5.22736L98.5572 5.10731C97.8784 4.92723 95.9619 4.98725 95.4628 5.18734Z" fill="#0085FF"/>
<path d="M64.0219 5.26337L63.5 5.50595L65.1661 10.2564L66.8321 15.0069L66.25 15.5325C65.9288 15.8155 65.2865 16.1794 64.8449 16.3209C64.3832 16.4826 63.9818 16.7252 63.9215 16.8667C63.7409 17.3114 64.4234 18.8275 65.0456 19.434L65.6277 20L67.1533 19.2723C69.9033 17.9381 71.4088 15.9368 72.6533 12.0758C73.2555 10.1958 74.5 5.80917 74.5 5.56659C74.5 5.14208 71.3285 4.77821 70.7664 5.1623C70.5255 5.3038 69.8029 8.86161 69.562 11.0246C69.4818 11.7119 69.4015 12.2577 69.3412 12.2173C69.3011 12.1566 69.1807 11.5502 69.0602 10.8427C68.7993 9.14462 67.6752 5.34423 67.3942 5.1623C67.0328 4.91972 64.6241 5.00058 64.0219 5.26337Z" fill="#0085FF"/>
</svg>
