<?xml version="1.0" encoding="UTF-8"?> <svg xmlns="http://www.w3.org/2000/svg" width="134" height="202" viewBox="0 0 134 202" fill="none"> <rect x="17" y="3" width="100" height="180" rx="12" fill="white" stroke="#0085FF" stroke-width="2" stroke-linecap="round" stroke-linejoin="round"></rect> <line x1="58" y1="16" x2="84" y2="16" stroke="#0085FF" stroke-width="2" stroke-miterlimit="10" stroke-linecap="round" stroke-linejoin="round"></line> <circle cx="51" cy="16" r="1" fill="#0085FF" stroke="#0085FF" stroke-width="2" stroke-miterlimit="10"></circle> <rect x="42" y="165" width="50" height="8" rx="4" fill="#0085FF" fill-opacity="0.2"></rect> <rect x="62" y="40" width="20" height="6" rx="3" fill="#0085FF" fill-opacity="0.2"></rect> <rect x="62" y="55" width="32" height="8" rx="4" fill="#0085FF"></rect> <rect x="62" y="31" width="46" height="6" rx="3" fill="#0085FF" fill-opacity="0.2"></rect> <path d="M50.7111 63H33.2889C29.2 63 26 59.8 26 55.7111V38.2889C26 34.2 29.2 31 33.2889 31H50.7111C54.8 31 58 34.2 58 38.2889V55.7111C58 59.8 54.8 63 50.7111 63Z" fill="#0085FF" fill-opacity="0.2"></path> <path d="M48.7556 46.1209L58 48.9341V45.9451L49.6444 43.4835L53.2 31.5275C52.6667 31.3516 52.1333 31.1758 51.7778 31.1758L48.2222 42.956L33.4667 38.5604V31H33.2889C32.2222 31 31.3333 31.1758 30.4444 31.5275V37.6813L26.1778 36.4505C26 36.978 26 37.6813 26 38.3846V39.4396L30.4444 40.8462V53.6813H26V55.2637H30.4444V55.967C30.4444 57.5494 31.6889 58.956 33.4667 58.956H43.4222L42.1778 63H43.7778L45.0222 58.956H57.2889C57.6444 58.0769 58 57.022 58 55.967H45.9111L48.7556 46.1209ZM44.3111 55.6154H34C33.6444 55.6154 33.4667 55.4396 33.4667 55.0879V41.5495L47.3333 45.5934L44.3111 55.6154Z" fill="white"></path> <path d="M50.8892 44.187C50.8892 39.4397 46.9781 35.3958 42.0003 35.3958C37.2003 35.3958 33.1115 39.2639 33.1115 44.187C33.1115 48.9342 36.1337 53.154 42.0003 56.4947C47.5114 53.3298 50.8892 48.9342 50.8892 44.187Z" fill="#0085FF"></path> <path d="M48.0449 44.7143C43.7782 45.5935 39.6894 44.8902 35.7782 42.7803C35.4227 43.1319 35.2449 43.6594 34.8894 44.011C34.7116 44.1869 34.7116 44.5385 34.7116 44.7143C34.7116 45.066 34.7116 45.2418 34.8894 45.5935C35.6005 48.9341 38.0894 51.3957 41.6449 51.7473C45.0227 52.0989 48.4005 49.9891 49.4671 46.8242C49.4671 46.6484 49.4671 46.6484 49.4671 46.4726C48.756 45.9451 48.4005 45.2418 48.0449 44.7143Z" fill="white"></path> <path d="M39.5117 48.055C40.045 48.055 40.5783 47.5275 40.5783 47C40.5783 46.4725 40.045 45.9451 39.5117 45.9451C38.9783 45.9451 38.445 46.4725 38.445 47C38.2672 47.7033 38.8005 48.055 39.5117 48.055Z" fill="#009CEA"></path> <path d="M44.6668 48.055C45.2001 48.055 45.7335 47.5275 45.7335 47C45.7335 46.4725 45.2001 45.9451 44.6668 45.9451C44.1335 45.9451 43.6001 46.4725 43.6001 47C43.6001 47.7033 44.1335 48.055 44.6668 48.055Z" fill="#009CEA"></path> <path d="M46.4451 47H37.2006V48.9341H46.4451V47Z" fill="white"></path> <path d="M42 48.4067H40.5777C40.5777 49.2859 41.2888 49.9892 42.1777 49.9892C43.0666 49.9892 43.7777 49.2859 43.7777 48.4067H42Z" fill="#009CEA"></path> <rect x="26" y="70" width="48" height="80" rx="4" fill="#0085FF" fill-opacity="0.2"></rect> <path d="M78 74C78 71.7909 79.7909 70 82 70H108V150H82C79.7909 150 78 148.209 78 146V74Z" fill="#0085FF" fill-opacity="0.2"></path> <circle cx="69" cy="183" r="19" fill="#1FD568"></circle> <path d="M68.4195 192H72.2154V173.681H68.4068L63.6715 176.969V180.422L68.3434 177.197H68.4195V192Z" fill="white"></path> </svg> 