<?xml version="1.0" encoding="UTF-8"?> <svg xmlns="http://www.w3.org/2000/svg" width="200" height="64" viewBox="0 0 200 64" fill="none"> <path d="M0 8C0 3.58172 3.58172 0 8 0H192C196.418 0 200 3.58172 200 8V56C200 60.4183 196.418 64 192 64H8C3.58173 64 0 60.4183 0 56V8Z" fill="#0085FF"></path> <path d="M19.6675 14.5677C19.1982 15.1148 18.9613 15.8153 19.0052 16.5263V47.4736C18.9613 48.1846 19.1982 48.8851 19.6675 49.4323L19.7683 49.5302L37.6077 32.2098V31.8041L19.7683 14.4697L19.6675 14.5677Z" fill="white" stroke="#0085FF" stroke-width="1.5"></path> <path d="M43.5091 37.9879L37.6058 32.2098V31.8041L43.5091 26.012L43.6387 26.0819L50.7082 29.9853C52.724 31.0906 52.724 32.9093 50.7082 34.0286L43.6674 37.918L43.5091 37.9879Z" fill="white" stroke="#0085FF" stroke-width="1.5"></path> <path d="M43.6816 37.904L37.6055 32L19.6653 49.4323C20.5129 50.1563 21.7709 50.1916 22.6601 49.5162L43.696 37.904" fill="white"></path> <path d="M43.6816 37.904L37.6055 32L19.6653 49.4323C20.5129 50.1563 21.7709 50.1916 22.6601 49.5162L43.696 37.904" stroke="#0085FF" stroke-width="1.5"></path> <path d="M43.6798 26.096L22.6439 14.4838C21.7547 13.8084 20.4967 13.8437 19.649 14.5677L37.6037 32L43.6798 26.096Z" fill="white" stroke="#0085FF" stroke-width="1.5"></path> <path fill-rule="evenodd" clip-rule="evenodd" d="M72.6998 35.5597V38.0999H78.8031C78.7066 39.2966 78.2089 40.4258 77.39 41.304C76.1547 42.5603 74.4466 43.2369 72.686 43.1669C68.9416 43.1669 65.9058 40.1338 65.9058 36.3924C65.9058 32.6511 68.9416 29.618 72.686 29.618C74.4066 29.59 76.0679 30.2446 77.3045 31.4385L79.0995 29.6462C77.4107 27.9384 75.1028 26.9861 72.6998 27.0071C69.2794 26.874 66.0616 28.6212 64.3121 31.5602C62.5626 34.4988 62.5626 38.1589 64.3121 41.0979C66.0616 44.0365 69.2794 45.7837 72.6998 45.651C75.1469 45.7613 77.521 44.8093 79.2126 43.0398C80.6919 41.4153 81.4818 39.2797 81.4156 37.0839C81.4198 36.5489 81.3729 36.015 81.275 35.4891L72.6998 35.5597ZM88.3668 33.7109C85.0539 33.7188 82.3724 36.4076 82.3779 39.7185C82.3835 43.0294 85.0718 45.7099 88.3861 45.7075C91.7004 45.7047 94.3846 43.0201 94.3846 39.7092C94.408 38.1065 93.7794 36.5631 92.642 35.4322C91.5046 34.3013 89.9578 33.6802 88.353 33.7109H88.3668ZM95.5427 39.7282C95.5316 36.4193 98.2062 33.7268 101.518 33.7113C103.122 33.6806 104.669 34.3017 105.807 35.4325C106.944 36.5634 107.573 38.1068 107.549 39.7096C107.549 43.0187 104.868 45.7027 101.555 45.7078C98.2434 45.713 95.5537 43.0373 95.5427 39.7282ZM97.9774 41.2881C98.6226 42.6372 100.027 43.4551 101.52 43.351C102.458 43.3293 103.346 42.9301 103.984 42.2446C104.622 41.559 104.956 40.645 104.911 39.7096C104.906 38.2144 103.99 36.8736 102.596 36.328C101.202 35.7827 99.6166 36.1436 98.5977 37.2383C97.5789 38.3329 97.3321 39.9391 97.9774 41.2881ZM84.814 41.2985C85.4634 42.6468 86.8723 43.4606 88.3654 43.3506H88.3516C89.2891 43.3289 90.177 42.9298 90.8153 42.2443C91.4536 41.5587 91.7872 40.6446 91.7417 39.7092C91.7376 38.213 90.818 36.8715 89.4228 36.3273C88.0276 35.7831 86.4422 36.147 85.4234 37.2448C84.4059 38.3422 84.1633 39.9505 84.814 41.2985ZM131.568 33.7113C133.909 33.7974 135.955 35.3191 136.709 37.5361L137.006 38.1713L128.968 41.4877C129.473 42.6341 130.627 43.3562 131.878 43.3082C133.087 43.3113 134.208 42.6789 134.83 41.6431L136.879 43.0542C135.763 44.7217 133.886 45.7185 131.878 45.7078C130.283 45.7309 128.746 45.1054 127.622 43.9738C126.497 42.8426 125.883 41.3033 125.917 39.7096C125.819 38.152 126.372 36.6237 127.442 35.4873C128.512 34.3513 130.006 33.7082 131.568 33.7113ZM128.51 39.541C128.452 38.6587 128.753 37.7904 129.343 37.1318C129.933 36.4731 130.763 36.0795 131.647 36.0399C132.577 35.9785 133.456 36.4783 133.879 37.3103L128.51 39.541ZM124.627 45.3552H121.985V27.7133H124.627V45.3552ZM117.666 35.0517H117.568C116.763 34.1521 115.612 33.6385 114.403 33.6403C111.197 33.7957 108.677 36.4383 108.677 39.6454C108.677 42.8529 111.197 45.4955 114.403 45.651C115.614 45.6713 116.774 45.1543 117.568 44.2395H117.652V45.1005C117.652 47.4009 116.424 48.6289 114.445 48.6289C113.098 48.5972 111.904 47.7552 111.423 46.4975L109.12 47.4574C110.007 49.6123 112.114 51.0137 114.445 50.9999C117.539 50.9999 120.096 49.179 120.096 44.7476V34.0635H117.666V35.0517ZM111.303 39.7096C111.303 41.6039 112.752 43.1845 114.627 43.3506C115.544 43.3155 116.409 42.9064 117.016 42.2184C117.624 41.5308 117.925 40.624 117.848 39.7096C117.917 38.7989 117.616 37.899 117.012 37.2135C116.409 36.5279 115.554 36.115 114.641 36.0681C112.752 36.2346 111.303 37.8149 111.303 39.7096ZM149.084 27.7133H142.77V45.3552H145.411V38.6655H149.098C151.15 38.8127 153.112 37.8025 154.183 36.0474C155.255 34.2924 155.255 32.0865 154.183 30.3314C153.112 28.5764 151.15 27.5661 149.098 27.7133H149.084ZM145.393 36.1819H149.08L149.136 36.2242C150.81 36.2242 152.167 34.8687 152.167 33.1967C152.167 31.5247 150.81 30.1694 149.136 30.1694H145.393V36.1819ZM165.373 33.641C163.407 33.5234 161.559 34.5822 160.669 36.3366L163.014 37.3103C163.485 36.4404 164.427 35.9313 165.414 36.0119C166.092 35.933 166.773 36.1291 167.304 36.5562C167.835 36.9836 168.173 37.606 168.24 38.284V38.4677C167.391 38.0189 166.445 37.7863 165.486 37.7901C162.957 37.7901 160.4 39.2015 160.4 41.7562C160.451 42.8564 160.944 43.8897 161.769 44.6208C162.593 45.3518 163.68 45.7185 164.778 45.6372C166.134 45.7344 167.434 45.085 168.169 43.9438H168.254V45.3549H170.796V38.5663C170.796 35.4756 168.451 33.6833 165.443 33.6833L165.373 33.641ZM162.979 41.8124C162.979 42.8712 164.18 43.3089 165.042 43.3089L165.112 43.351C166.703 43.3124 168.024 42.1081 168.206 40.5275C167.472 40.1187 166.644 39.9139 165.804 39.9346C164.476 39.9346 162.979 40.4006 162.979 41.8124ZM180.062 34.0639L177.039 41.7135H176.955L173.818 34.0639H170.993L175.697 44.7617L173.013 50.7035H175.768L183 34.0639H180.062ZM158.955 45.3549H156.313V27.713H158.955V45.3549Z" fill="white"></path> <path d="M71.4062 20.8926C71.0977 21.2949 70.6699 21.5996 70.123 21.8066C69.5762 22.0137 68.9551 22.1172 68.2598 22.1172C67.5449 22.1172 66.9121 21.9551 66.3613 21.6309C65.8105 21.3066 65.3848 20.8438 65.084 20.2422C64.7871 19.6367 64.6328 18.9316 64.6211 18.127V17.459C64.6211 16.1699 64.9297 15.1641 65.5469 14.4414C66.1641 13.7148 67.0254 13.3516 68.1309 13.3516C69.0801 13.3516 69.834 13.5859 70.3926 14.0547C70.9512 14.5234 71.2871 15.1992 71.4004 16.082H69.9473C69.7832 15.0547 69.1875 14.541 68.1602 14.541C67.4961 14.541 66.9902 14.7812 66.6426 15.2617C66.2988 15.7383 66.1211 16.4395 66.1094 17.3652V18.0215C66.1094 18.9434 66.3027 19.6602 66.6895 20.1719C67.0801 20.6797 67.6211 20.9336 68.3125 20.9336C69.0703 20.9336 69.6094 20.7617 69.9297 20.418V18.748H68.1719V17.623H71.4062V20.8926ZM78.0215 18.1914H74.5176V20.8164H78.6133V22H73.0352V13.4688H78.5723V14.6641H74.5176V17.0195H78.0215V18.1914ZM86.1016 14.6641H83.4414V22H81.9707V14.6641H79.334V13.4688H86.1016V14.6641ZM91.4277 22H89.9512V13.4688H91.4277V22ZM99.2383 14.6641H96.5781V22H95.1074V14.6641H92.4707V13.4688H99.2383V14.6641ZM109.809 17.957C109.809 18.793 109.664 19.5273 109.375 20.1602C109.086 20.7891 108.672 21.2734 108.133 21.6133C107.598 21.9492 106.98 22.1172 106.281 22.1172C105.59 22.1172 104.973 21.9492 104.43 21.6133C103.891 21.2734 103.473 20.791 103.176 20.166C102.883 19.541 102.734 18.8203 102.73 18.0039V17.5234C102.73 16.6914 102.877 15.957 103.17 15.3203C103.467 14.6836 103.883 14.1973 104.418 13.8613C104.957 13.5215 105.574 13.3516 106.27 13.3516C106.965 13.3516 107.58 13.5195 108.115 13.8555C108.654 14.1875 109.07 14.668 109.363 15.2969C109.656 15.9219 109.805 16.6504 109.809 17.4824V17.957ZM108.326 17.5117C108.326 16.5664 108.146 15.8418 107.787 15.3379C107.432 14.834 106.926 14.582 106.27 14.582C105.629 14.582 105.127 14.834 104.764 15.3379C104.404 15.8379 104.221 16.5469 104.213 17.4648V17.957C104.213 18.8945 104.395 19.6191 104.758 20.1309C105.125 20.6426 105.633 20.8984 106.281 20.8984C106.938 20.8984 107.441 20.6484 107.793 20.1484C108.148 19.6484 108.326 18.918 108.326 17.957V17.5117ZM118.053 22H116.57L112.768 15.9473V22H111.285V13.4688H112.768L116.582 19.5449V13.4688H118.053V22Z" fill="white"></path> </svg> 