<?xml version="1.0" encoding="UTF-8"?> <svg xmlns="http://www.w3.org/2000/svg" width="134" height="202" viewBox="0 0 134 202" fill="none"> <rect x="16" y="3" width="100" height="180" rx="12" fill="white" stroke="#0085FF" stroke-width="2" stroke-linecap="round" stroke-linejoin="round"></rect> <line x1="57" y1="16" x2="83" y2="16" stroke="#0085FF" stroke-width="2" stroke-miterlimit="10" stroke-linecap="round" stroke-linejoin="round"></line> <circle cx="50" cy="16" r="1" fill="#0085FF" stroke="#0085FF" stroke-width="2" stroke-miterlimit="10"></circle> <rect x="41" y="165" width="50" height="8" rx="4" fill="#0085FF" fill-opacity="0.2"></rect> <rect x="34" y="31" width="64" height="6" rx="3" fill="#0085FF" fill-opacity="0.2"></rect> <rect x="24.999" y="45" width="82" height="38" rx="4" fill="#0085FF" fill-opacity="0.2"></rect> <rect x="60.999" y="60" width="32" height="8" rx="4" fill="#0085FF"></rect> <path d="M39.137 75.5589H47.8611C49.3528 75.5589 50.499 74.3235 50.499 72.8903V56.1394C50.499 54.7061 49.3528 53.4707 47.8611 53.4707H39.137C37.6452 53.4707 36.499 54.7061 36.499 56.1394V72.8903C36.499 74.3235 37.6452 75.5589 39.137 75.5589Z" fill="white"></path> <path d="M39.137 75.5589H47.8611C49.3528 75.5589 50.499 74.3235 50.499 72.8903V56.1394C50.499 54.7061 49.3528 53.4707 47.8611 53.4707H39.137C37.6452 53.4707 36.499 54.7061 36.499 56.1394V72.8903C36.499 74.3235 37.6452 75.5589 39.137 75.5589Z" stroke="#7C8E93" stroke-width="3"></path> <path d="M39.137 75.5589H47.8611C49.3528 75.5589 50.499 74.3235 50.499 72.8903V56.1394C50.499 54.7061 49.3528 53.4707 47.8611 53.4707H39.137C37.6452 53.4707 36.499 54.7061 36.499 56.1394V72.8903C36.499 74.3235 37.6452 75.5589 39.137 75.5589Z" stroke="#0085FF" stroke-width="3"></path> <rect x="40.999" y="71.5" width="5" height="1.5" rx="0.75" fill="#0085FF"></rect> <rect x="40.5873" y="54" width="5.82353" height="1.94118" rx="0.970588" fill="#0085FF"></rect> <rect x="24.999" y="88" width="82" height="38" rx="4" fill="#0085FF" fill-opacity="0.2"></rect> <rect x="60.999" y="103" width="32" height="8" rx="4" fill="#0085FF"></rect> <rect x="36.499" y="99.8242" width="12.7297" height="14.3514" rx="3.5" fill="white"></rect> <rect x="36.499" y="99.8242" width="12.7297" height="14.3514" rx="3.5" stroke="white" stroke-width="3" stroke-linecap="round" stroke-linejoin="round"></rect> <rect x="36.499" y="99.8242" width="12.7297" height="14.3514" rx="3.5" stroke="#0085FF" stroke-width="3" stroke-linecap="round" stroke-linejoin="round"></rect> <path d="M38.1771 115.164C38.0812 113.999 39.0011 113 40.1704 113H45.8277C46.9969 113 47.9168 113.999 47.8209 115.164L47.4094 120.164C47.324 121.202 46.4571 122 45.4161 122H40.5819C39.541 122 38.674 121.202 38.5887 120.164L38.1771 115.164Z" fill="white"></path> <path d="M38.1771 115.164C38.0812 113.999 39.0011 113 40.1704 113H45.8277C46.9969 113 47.9168 113.999 47.8209 115.164L47.4094 120.164C47.324 121.202 46.4571 122 45.4161 122H40.5819C39.541 122 38.674 121.202 38.5887 120.164L38.1771 115.164Z" fill="#0085FF"></path> <path d="M47.8209 98.8359C47.9168 100.001 46.9969 101 45.8277 101L40.1704 101C39.0011 101 38.0812 100.001 38.1771 98.8359L38.5887 93.8359C38.674 92.7985 39.541 92 40.5819 92L45.4161 92C46.4571 92 47.324 92.7985 47.4094 93.8359L47.8209 98.8359Z" fill="white"></path> <path d="M47.8209 98.8359C47.9168 100.001 46.9969 101 45.8277 101L40.1704 101C39.0011 101 38.0812 100.001 38.1771 98.8359L38.5887 93.8359C38.674 92.7985 39.541 92 40.5819 92L45.4161 92C46.4571 92 47.324 92.7985 47.4094 93.8359L47.8209 98.8359Z" fill="#0085FF"></path> <circle cx="67" cy="183" r="19" fill="#1FD568"></circle> <path d="M60.021 179.19V179.254H63.5757V179.19C63.5757 177.502 64.8833 176.258 66.6607 176.258C68.3618 176.258 69.5679 177.35 69.5679 178.721C69.5679 179.99 68.9966 180.917 67.1431 182.771L60.2368 189.423V192H73.5542V188.953H65.2896V188.877L69.7583 184.573C71.7769 182.567 73.3003 180.854 73.3003 178.568C73.3003 175.509 70.647 173.274 66.7876 173.274C62.7886 173.274 60.021 175.725 60.021 179.19Z" fill="white"></path> </svg> 