<?xml version="1.0" encoding="UTF-8"?> <svg xmlns="http://www.w3.org/2000/svg" width="134" height="202" viewBox="0 0 134 202" fill="none"> <rect x="5" y="3" width="100" height="180" rx="12" fill="white" stroke="#0085FF" stroke-width="2" stroke-linecap="round" stroke-linejoin="round"></rect> <line x1="46" y1="16" x2="72" y2="16" stroke="#0085FF" stroke-width="2" stroke-miterlimit="10" stroke-linecap="round" stroke-linejoin="round"></line> <circle cx="39" cy="16" r="1" fill="#0085FF" stroke="#0085FF" stroke-width="2" stroke-miterlimit="10"></circle> <rect x="30" y="165" width="50" height="8" rx="4" fill="#0085FF" fill-opacity="0.2"></rect> <rect x="23" y="31" width="64" height="6" rx="3" fill="#0085FF" fill-opacity="0.2"></rect> <mask id="path-6-outside-1" maskUnits="userSpaceOnUse" x="77" y="46" width="56" height="102" fill="black"> <rect fill="white" x="77" y="46" width="56" height="102"></rect> <path fill-rule="evenodd" clip-rule="evenodd" d="M120.295 69.069C126.313 69.7146 131 74.81 131 81V113C131 119.19 126.313 124.286 120.294 124.931L119.066 140.473C118.82 143.593 116.215 146 113.085 146H96.9148C93.7844 146 91.18 143.593 90.9334 140.473L89.7054 124.931C83.6869 124.285 79 119.19 79 113V81C79 74.8098 83.6871 69.7144 89.7059 69.069L90.9338 53.5274C91.1804 50.4067 93.7848 48 96.9152 48H113.085C116.216 48 118.82 50.4067 119.067 53.5274L120.295 69.069Z"></path> </mask> <path fill-rule="evenodd" clip-rule="evenodd" d="M120.295 69.069C126.313 69.7146 131 74.81 131 81V113C131 119.19 126.313 124.286 120.294 124.931L119.066 140.473C118.82 143.593 116.215 146 113.085 146H96.9148C93.7844 146 91.18 143.593 90.9334 140.473L89.7054 124.931C83.6869 124.285 79 119.19 79 113V81C79 74.8098 83.6871 69.7144 89.7059 69.069L90.9338 53.5274C91.1804 50.4067 93.7848 48 96.9152 48H113.085C116.216 48 118.82 50.4067 119.067 53.5274L120.295 69.069Z" fill="white"></path> <path d="M120.295 69.069L118.301 69.2265L118.431 70.8806L120.081 71.0576L120.295 69.069ZM120.294 124.931L120.081 122.942L118.431 123.119L118.3 124.773L120.294 124.931ZM119.066 140.473L117.072 140.315L119.066 140.473ZM90.9334 140.473L88.9396 140.63L90.9334 140.473ZM89.7054 124.931L91.6992 124.773L91.5685 123.119L89.9187 122.942L89.7054 124.931ZM89.7059 69.069L89.9191 71.0576L91.569 70.8807L91.6997 69.2265L89.7059 69.069ZM90.9338 53.5274L92.9276 53.6849L90.9338 53.5274ZM119.067 53.5274L121.06 53.3699L119.067 53.5274ZM120.081 71.0576C125.095 71.5954 129 75.8429 129 81H133C133 73.777 127.532 67.8338 120.508 67.0804L120.081 71.0576ZM129 81V113H133V81H129ZM129 113C129 118.157 125.094 122.405 120.081 122.942L120.507 126.92C127.531 126.166 133 120.223 133 113H129ZM118.3 124.773L117.072 140.315L121.06 140.63L122.288 125.089L118.3 124.773ZM117.072 140.315C116.908 142.396 115.172 144 113.085 144V148C117.259 148 120.731 144.791 121.06 140.63L117.072 140.315ZM113.085 144H96.9148V148H113.085V144ZM96.9148 144C94.8278 144 93.0916 142.396 92.9272 140.315L88.9396 140.63C89.2684 144.791 92.7409 148 96.9148 148V144ZM92.9272 140.315L91.6992 124.773L87.7117 125.089L88.9396 140.63L92.9272 140.315ZM89.9187 122.942C84.9054 122.405 81 118.157 81 113H77C77 120.223 82.4683 126.166 89.4921 126.92L89.9187 122.942ZM81 113V81H77V113H81ZM81 81C81 75.8428 84.9056 71.5952 89.9191 71.0576L89.4926 67.0804C82.4686 67.8335 77 73.7768 77 81H81ZM91.6997 69.2265L92.9276 53.6849L88.9401 53.3699L87.7121 68.9114L91.6997 69.2265ZM92.9276 53.6849C93.092 51.6045 94.8283 50 96.9152 50V46C92.7413 46 89.2688 49.2089 88.9401 53.3699L92.9276 53.6849ZM96.9152 50H113.085V46H96.9152V50ZM113.085 50C115.172 50 116.908 51.6045 117.073 53.6849L121.06 53.3699C120.732 49.2089 117.259 46 113.085 46V50ZM117.073 53.6849L118.301 69.2265L122.288 68.9115L121.06 53.3699L117.073 53.6849Z" fill="#0085FF" mask="url(#path-6-outside-1)"></path> <rect x="89" y="79" width="32" height="36" rx="2" fill="white"></rect> <rect x="84" y="74" width="42" height="46" rx="7" stroke="white" stroke-opacity="0.2" stroke-width="10" stroke-linecap="round" stroke-linejoin="round"></rect> <path d="M89.5114 122.473C89.2357 118.983 91.9928 116 95.4928 116H114.507C118.007 116 120.764 118.983 120.489 122.473L119.066 140.473C118.82 143.593 116.215 146 113.085 146H96.915C93.7846 146 91.1802 143.593 90.9336 140.473L89.5114 122.473Z" fill="white"></path> <path d="M120.489 71.5274C120.764 75.0165 118.007 78 114.507 78L95.4928 78C91.9928 78 89.2357 75.0165 89.5114 71.5274L90.9336 53.5274C91.1802 50.4067 93.7846 48 96.915 48L113.085 48C116.215 48 118.82 50.4067 119.066 53.5274L120.489 71.5274Z" fill="white"></path> <rect x="88" y="78" width="34" height="38" rx="3" fill="white" stroke="#0085FF" stroke-width="2" stroke-linecap="round" stroke-linejoin="round"></rect> <circle cx="57" cy="183" r="19" fill="#1FD568"></circle> <path d="M54.3501 184.002H56.6099C58.6792 184.002 59.9361 185.018 59.9361 186.693C59.9361 188.242 58.5904 189.321 56.6734 189.321C54.6548 189.321 53.3853 188.306 53.271 186.757H49.6021C49.7798 190.134 52.4839 192.406 56.6226 192.406C60.8501 192.406 63.8335 190.223 63.8335 186.935C63.8335 184.396 62.0689 182.745 59.3394 182.517V182.44C61.5865 182.034 63.1226 180.409 63.1226 178.162C63.1226 175.229 60.5201 173.274 56.7115 173.274C52.7378 173.274 50.0972 175.483 49.9576 178.873H53.4868C53.5884 177.273 54.7691 176.22 56.5464 176.22C58.4507 176.22 59.5044 177.197 59.5044 178.683C59.5044 180.193 58.3238 181.234 56.5718 181.234H54.3501V184.002Z" fill="white"></path> <mask id="path-15-inside-2" fill="white"> <path d="M57.704 95.2178C55.9375 96.9468 53.0625 96.9468 51.296 95.2178C50.9994 94.9274 50.5191 94.9274 50.2225 95.2178C49.9258 95.5077 49.9258 95.9783 50.2225 96.2686C51.4019 97.4227 52.9508 98 54.5 98C56.0492 98 57.5981 97.4227 58.7775 96.2686C59.0742 95.9783 59.0742 95.5077 58.7775 95.2178C58.4809 94.9274 58.0006 94.9274 57.704 95.2178Z"></path> </mask> <path d="M57.704 95.2178C55.9375 96.9468 53.0625 96.9468 51.296 95.2178C50.9994 94.9274 50.5191 94.9274 50.2225 95.2178C49.9258 95.5077 49.9258 95.9783 50.2225 96.2686C51.4019 97.4227 52.9508 98 54.5 98C56.0492 98 57.5981 97.4227 58.7775 96.2686C59.0742 95.9783 59.0742 95.5077 58.7775 95.2178C58.4809 94.9274 58.0006 94.9274 57.704 95.2178Z" fill="#0085FF"></path> <path d="M57.704 95.2178L59.8025 97.3616L59.8025 97.3616L57.704 95.2178ZM51.296 95.2178L49.1975 97.3616L49.1975 97.3616L51.296 95.2178ZM50.2225 95.2178L52.3196 97.363L52.321 97.3616L50.2225 95.2178ZM50.2225 96.2686L48.1239 98.4125L48.1243 98.4128L50.2225 96.2686ZM58.7775 96.2686L60.8757 98.4128L60.8761 98.4125L58.7775 96.2686ZM58.7775 95.2178L56.679 97.3616L56.6804 97.363L58.7775 95.2178ZM55.6054 93.0739C55.0052 93.6615 53.9948 93.6615 53.3946 93.0739L49.1975 97.3616C52.1301 100.232 56.8699 100.232 59.8025 97.3616L55.6054 93.0739ZM53.3946 93.0739C51.9318 91.642 49.5867 91.642 48.1239 93.0739L52.321 97.3616C51.4514 98.2128 50.0671 98.2128 49.1975 97.3616L53.3946 93.0739ZM48.1253 93.0725C46.6241 94.5401 46.6261 96.9464 48.1239 98.4125L52.321 94.1248C53.2255 95.0102 53.2276 96.4754 52.3196 97.363L48.1253 93.0725ZM48.1243 98.4128C49.8949 100.145 52.2102 101 54.5 101V95C53.6913 95 52.9089 94.7001 52.3206 94.1244L48.1243 98.4128ZM54.5 101C56.7898 101 59.1051 100.145 60.8757 98.4128L56.6794 94.1244C56.0911 94.7001 55.3087 95 54.5 95V101ZM60.8761 98.4125C62.3739 96.9464 62.3759 94.5401 60.8747 93.0725L56.6804 97.363C55.7724 96.4754 55.7745 95.0102 56.679 94.1248L60.8761 98.4125ZM60.8761 93.0739C59.4133 91.642 57.0682 91.642 55.6054 93.0739L59.8025 97.3616C58.9329 98.2128 57.5486 98.2128 56.679 97.3616L60.8761 93.0739Z" fill="#0085FF" mask="url(#path-15-inside-2)"></path> <path d="M50.3438 102.375L55.0312 103.938L62.0625 100.812L66.75 107.062L65.9688 115.656L45.6562 116.438H42.5312L41.75 115.656L40.9688 112.531L41.75 109.406L42.5312 103.938L45.6562 100.812L50.3438 102.375Z" fill="#0085FF" fill-opacity="0.2"></path> <path d="M66.7497 82.7484L66.7484 85.0811C59.6027 84.9749 53.5593 83.5551 50.8554 82.186C49.2519 81.3736 48.138 80.5562 47.4294 79.9481C47.1622 80.8649 46.6465 81.7839 45.9146 82.6278C44.9814 83.7045 42.3479 84.5615 41.0776 85.079C41.0742 85.2097 41.0713 85.3389 41.0686 85.4667L41.0532 87.0892C41.052 86.5756 41.0569 86.0353 41.0686 85.4667L41.0723 85.0811C41.0741 85.0804 41.0758 85.0797 41.0776 85.079C41.0961 84.3484 41.1256 83.5726 41.1672 82.7484C41.54 75.3601 46.9054 69.5625 53.9584 69.5625C56.3618 69.5625 58.7038 70.2536 60.7321 71.5611C65.396 74.862 66.7497 79.2262 66.7497 82.7484Z" fill="#0085FF" fill-opacity="0.2"></path> <path d="M66.7484 85.0811L66.7497 82.7484C66.7497 79.2262 65.396 74.862 60.7321 71.5611C58.7038 70.2536 56.3618 69.5625 53.9584 69.5625C46.9054 69.5625 41.54 75.3601 41.1672 82.7484C40.5709 94.5625 42.4716 96.4315 43.1511 97.6875C40.4038 97.1645 37.0398 97.0543 34.3428 97.4535C31.0406 97.9426 28.6497 99.0816 27.7822 100.579C27.6715 100.77 27.6576 101.005 27.7419 101.21C27.8266 101.415 28.0029 101.566 28.2135 101.617C28.2215 101.619 29.0061 101.812 29.6592 102.431C30.4903 103.219 30.7457 104.353 30.4177 105.802C30.1394 107.032 29.6651 108.096 29.2063 109.125C28.1621 111.468 27.1759 113.681 29.6515 116.233C29.7813 116.367 29.9541 116.438 30.1304 116.438C30.222 116.438 30.3143 116.418 30.4021 116.379L35.1333 114.24M66.7484 85.0811C59.6027 84.9749 53.5593 83.5551 50.8554 82.186C49.2519 81.3736 48.138 80.5562 47.4294 79.9481C47.1622 80.8649 46.6465 81.7839 45.9146 82.6278C44.9801 83.706 42.3407 84.5639 41.0723 85.0811L41.0388 88.5937C40.5709 99.25 48.7644 103.043 53.9584 103.043C59.1524 103.043 66.073 98.4688 66.677 91.253L66.7484 85.0811ZM35.1333 114.24C35.0448 114.28 34.9177 114.316 34.5895 114.472M35.1333 114.24L41.1675 111.513M45.9146 100.031C43.4564 102.416 41.2844 108.028 41.1675 111.513M41.1675 111.513V115.74C41.1675 116.125 41.4704 116.438 41.8445 116.438H66.073C66.4471 116.438 66.75 116.125 66.75 115.74V110.446C66.75 106.924 65.4192 103.613 63.0033 101.121C62.9124 101.028 61.7906 100.318 61.7906 100.318" stroke="#0085FF" stroke-width="2"></path> <circle cx="49.5625" cy="89.875" r="1.5625" fill="#0085FF"></circle> <circle cx="58.9375" cy="89.875" r="1.5625" fill="#0085FF"></circle> </svg> 